<?xml version="1.0" standalone="no"?>
<!DOCTYPE svg PUBLIC "-//W3C//DTD SVG 20010904//EN"
 "http://www.w3.org/TR/2001/REC-SVG-20010904/DTD/svg10.dtd">
<svg version="1.0" xmlns="http://www.w3.org/2000/svg"
 width="324.000000pt" height="324.000000pt" viewBox="0 0 324.000000 324.000000"
 preserveAspectRatio="xMidYMid meet">

<g transform="translate(0.000000,324.000000) scale(0.100000,-0.100000)"
fill="#000000" stroke="none">
<path d="M0 2550 l0 -690 60 0 c57 0 60 1 66 28 44 194 91 329 147 424 15 26
27 50 27 54 0 4 21 39 47 78 106 163 286 342 449 449 39 26 74 47 78 47 4 0
28 12 54 27 163 96 472 173 692 173 220 0 529 -77 692 -173 26 -15 50 -27 54
-27 4 0 39 -21 78 -47 163 -107 343 -286 449 -449 26 -39 47 -74 47 -78 0 -4
12 -28 27 -54 56 -95 103 -230 147 -424 6 -27 9 -28 66 -28 l60 0 0 690 0 690
-1620 0 -1620 0 0 -690z"/>
<path d="M1440 3004 c-114 -20 -154 -29 -234 -54 -489 -152 -838 -540 -957
-1065 -19 -82 -19 -448 0 -530 131 -579 527 -975 1106 -1106 40 -9 128 -14
265 -14 217 0 252 5 415 55 436 136 779 479 915 915 50 163 55 198 55 415 0
217 -5 252 -55 415 -134 430 -475 775 -900 910 -157 50 -199 57 -395 60 -104
2 -201 2 -215 -1z m452 -273 c87 -17 225 -67 286 -103 130 -78 203 -226 203
-412 1 -248 -122 -413 -357 -482 -52 -15 -56 -18 -34 -25 202 -60 274 -97 348
-177 86 -95 128 -229 119 -387 -14 -243 -132 -412 -358 -514 -142 -64 -147
-64 -686 -68 l-493 -4 0 1096 0 1097 458 -5 c271 -3 480 -9 514 -16z"/>
<path d="M1200 2165 l0 -347 288 5 c374 5 441 21 536 124 69 75 87 285 34 388
-40 76 -101 118 -218 150 -54 15 -116 19 -352 22 l-288 5 0 -347z"/>
<path d="M1200 1185 l0 -395 233 0 c261 0 367 9 476 42 67 20 83 30 138 84 54
54 65 73 85 136 30 97 30 220 0 298 -25 65 -92 139 -152 170 -101 51 -171 60
-487 60 l-293 0 0 -395z"/>
<path d="M0 690 l0 -690 1620 0 1620 0 0 690 0 690 -60 0 c-57 0 -60 -1 -66
-27 -44 -195 -91 -330 -147 -425 -15 -26 -27 -50 -27 -54 0 -4 -21 -39 -47
-78 -106 -163 -286 -342 -449 -449 -39 -26 -74 -47 -78 -47 -4 0 -28 -12 -54
-27 -163 -96 -472 -173 -692 -173 -220 0 -529 77 -692 173 -26 15 -50 27 -54
27 -4 0 -39 21 -78 47 -163 107 -343 286 -449 449 -26 39 -47 74 -47 78 0 4
-12 28 -27 54 -56 95 -103 230 -147 425 -6 26 -9 27 -66 27 l-60 0 0 -690z"/>
</g>
</svg>
