<?xml version="1.0" standalone="no"?>
<!DOCTYPE svg PUBLIC "-//W3C//DTD SVG 20010904//EN"
 "http://www.w3.org/TR/2001/REC-SVG-20010904/DTD/svg10.dtd">
<svg version="1.0" xmlns="http://www.w3.org/2000/svg"
 width="1000.000000pt" height="1000.000000pt" viewBox="0 0 1000.000000 1000.000000"
 preserveAspectRatio="xMidYMid meet">

<g transform="translate(0.000000,1000.000000) scale(0.100000,-0.100000)"
fill="#000000" stroke="none">
<path d="M4420 9665 l-575 -334 -671 -1 -671 0 -336 -581 -335 -581 -581 -335
-581 -336 0 -669 0 -669 -335 -580 -335 -579 335 -579 335 -580 0 -669 0 -669
582 -337 583 -337 330 -574 330 -574 664 -1 665 0 588 -340 588 -340 588 340
588 340 665 0 664 1 330 574 330 574 577 333 577 333 1 664 0 665 340 588 340
588 -340 588 -340 588 0 665 -1 664 -574 330 -574 330 -337 583 -337 582 -669
0 -669 0 -579 335 c-319 184 -581 335 -582 334 -2 0 -262 -150 -578 -334z
m2415 -1476 l1835 -1061 2 -2127 3 -2126 -1837 -1063 -1838 -1062 -1840 1062
-1839 1063 0 2125 0 2125 1837 1062 c1010 584 1838 1062 1840 1062 1 1 828
-476 1837 -1060z"/>
<path d="M3230 5035 l0 -2325 305 0 305 0 0 1140 0 1140 1165 0 1165 0 0
-1140 0 -1140 305 0 305 0 0 2325 0 2325 -305 0 -305 0 0 -910 0 -910 -1165 0
-1165 0 0 910 0 910 -305 0 -305 0 0 -2325z"/>
</g>
</svg>
