<?xml version="1.0" encoding="UTF-8"?>
<svg version="1.1" xmlns="http://www.w3.org/2000/svg" width="200" height="200">
<path d="M0 0 C12.54 0 25.08 0 38 0 C38 12.87 38 25.74 38 39 C25.46 39 12.92 39 0 39 C0 26.13 0 13.26 0 0 Z " fill="#FF6B6B" transform="translate(100,155)"/>
<path d="M0 0 C12.54 0 25.08 0 38 0 C38 12.87 38 25.74 38 39 C25.46 39 12.92 39 0 39 C0 26.13 0 13.26 0 0 Z " fill="#007BFF" transform="translate(53,155)"/>
<path d="M0 0 C12.54 0 25.08 0 38 0 C38 12.87 38 25.74 38 39 C25.46 39 12.92 39 0 39 C0 26.13 0 13.26 0 0 Z " fill="#FF6B6B" transform="translate(6,155)"/>
<path d="M0 0 C12.54 0 25.08 0 38 0 C38 12.87 38 25.74 38 39 C25.46 39 12.92 39 0 39 C0 26.13 0 13.26 0 0 Z " fill="#FF6B6B" transform="translate(156,5)"/>
<path d="M0 0 C4.36662297 1.49084329 7.82394305 3.84541443 11.5 6.5625 C12.7311375 7.45790271 13.96292514 8.35241207 15.1953125 9.24609375 C16.13358887 9.92841064 16.13358887 9.92841064 17.09082031 10.62451172 C20.15657863 12.83326905 23.26374131 14.98102366 26.375 17.125 C27.45523438 17.87007812 28.53546875 18.61515625 29.6484375 19.3828125 C30.42445313 19.91648437 31.20046875 20.45015625 32 21 C29.75323611 25.72411846 26.76820836 29.88556145 23.8125 34.1875 C23.26013672 35.00025391 22.70777344 35.81300781 22.13867188 36.65039062 C18.29244212 42.26561804 14.23695005 47.67398323 10 53 C2.63547307 48.49699861 -4.23916635 43.62391505 -11.02734375 38.3125 C-14.28953984 35.77476008 -17.61115523 33.36431031 -21 31 C-17.90905929 25.31054786 -14.33389747 20.14934021 -10.5 14.9375 C-6.89950112 10.01845107 -3.3327746 5.10535325 0 0 Z " fill="#007BFF" transform="translate(102,15)"/>
<path d="M0 0 C1.91415813 2.35938162 3.71849287 4.73055575 5.5 7.1875 C6.57738973 8.65028142 7.65552722 10.11251236 8.734375 11.57421875 C9.27771484 12.31333496 9.82105469 13.05245117 10.38085938 13.81396484 C12.79596412 17.07464757 15.26812502 20.2900054 17.75 23.5 C18.17990234 24.0571167 18.60980469 24.6142334 19.05273438 25.18823242 C20.03424192 26.45952805 21.01696555 27.72988469 22 29 C18.52444455 32.6099692 14.9421382 35.7130253 10.9375 38.75 C10.3803833 39.17394043 9.8232666 39.59788086 9.24926758 40.03466797 C7.50300921 41.3611456 5.75224845 42.68144759 4 44 C3.41541016 44.44053711 2.83082031 44.88107422 2.22851562 45.33496094 C-1.17497333 47.89805873 -4.58483418 50.4524709 -8 53 C-12.70215177 48.6458253 -16.31930747 43.68410334 -20.0625 38.5 C-21.28163227 36.8222479 -22.50165942 35.14514564 -23.72265625 33.46875 C-24.28871582 32.69144531 -24.85477539 31.91414063 -25.43798828 31.11328125 C-27.22933026 28.68973386 -29.08671117 26.3283914 -31 24 C-29.51926486 20.33766192 -27.55611651 18.60280789 -24.421875 16.25 C-23.50792969 15.5590625 -22.59398438 14.868125 -21.65234375 14.15625 C-20.69457031 13.4446875 -19.73679687 12.733125 -18.75 12 C-17.33654297 10.93265625 -17.33654297 10.93265625 -15.89453125 9.84375 C-2.80013993 0 -2.80013993 0 0 0 Z " fill="#FF6B6B" transform="translate(146,77)"/>
<path d="M0 0 C12.54 0 25.08 0 38 0 C38 12.54 38 25.08 38 38 C25.46 38 12.92 38 0 38 C0 25.46 0 12.92 0 0 Z " fill="#FF6B6B" transform="translate(53,109)"/>
<path d="M0 0 C12.54 0 25.08 0 38 0 C38 12.54 38 25.08 38 38 C25.46 38 12.92 38 0 38 C0 25.46 0 12.92 0 0 Z " fill="#FF6B6B" transform="translate(6,109)"/>
<path d="M0 0 C12.54 0 25.08 0 38 0 C38 12.54 38 25.08 38 38 C25.46 38 12.92 38 0 38 C0 25.46 0 12.92 0 0 Z " fill="#FF6B6B" transform="translate(6,62)"/>
</svg>
